<?xml version="1.0" standalone="no"?>
<!DOCTYPE svg PUBLIC "-//W3C//DTD SVG 20010904//EN"
 "http://www.w3.org/TR/2001/REC-SVG-20010904/DTD/svg10.dtd">
<svg version="1.0" xmlns="http://www.w3.org/2000/svg"
 width="512.000000pt" height="512.000000pt" viewBox="0 0 512.000000 512.000000"
 preserveAspectRatio="xMidYMid meet">

<g transform="translate(0.000000,512.000000) scale(0.100000,-0.100000)"
fill="#000000" stroke="none">
<path d="M800 4600 l0 -280 -280 0 -280 0 0 -2040 0 -2040 1360 0 1360 0 0
329 0 329 -30 12 c-42 17 -104 90 -118 138 -17 56 -17 1208 0 1264 14 48 76
121 118 138 l30 12 0 338 0 338 -30 12 c-42 17 -104 90 -118 138 -17 56 -17
1208 0 1264 14 48 76 121 118 138 l30 12 0 89 0 89 -1080 0 -1080 0 0 -280z
m946 -51 c153 -21 331 -92 459 -184 68 -48 205 -187 251 -255 149 -217 211
-496 169 -755 -37 -227 -139 -419 -312 -586 -90 -87 -138 -121 -243 -174 -303
-152 -636 -152 -940 0 -102 51 -192 119 -282 213 -88 92 -123 141 -176 248
-149 296 -149 632 0 928 55 110 89 158 177 249 93 96 181 162 286 215 191 96
401 130 611 101z m334 -2549 l0 -240 -800 0 -800 0 0 240 0 240 800 0 800 0 0
-240z m80 -560 l0 -80 -880 0 -880 0 0 80 0 80 880 0 880 0 0 -80z m320 -320
l0 -80 -1040 0 -1040 0 0 80 0 80 1040 0 1040 0 0 -80z m0 -320 l0 -80 -1040
0 -1040 0 0 80 0 80 1040 0 1040 0 0 -80z m-1600 -320 l0 -80 -240 0 -240 0 0
80 0 80 240 0 240 0 0 -80z m640 0 l0 -80 -240 0 -240 0 0 80 0 80 240 0 240
0 0 -80z m640 0 l0 -80 -240 0 -240 0 0 80 0 80 240 0 240 0 0 -80z"/>
<path d="M1436 4384 c-350 -63 -639 -356 -701 -709 -34 -197 -5 -381 89 -564
l32 -63 50 62 c66 83 189 180 293 232 47 23 88 44 90 45 2 2 -17 25 -42 52
-172 183 -168 466 10 652 183 192 479 198 674 12 188 -179 198 -467 24 -661
-26 -29 -46 -54 -44 -55 2 -1 43 -22 90 -45 104 -52 227 -149 293 -232 l50
-62 34 68 c77 153 109 302 99 458 -36 530 -517 905 -1041 810z"/>
<path d="M1525 4071 c-92 -24 -173 -90 -215 -176 -34 -69 -35 -198 -2 -265 34
-71 75 -114 144 -151 58 -31 70 -34 148 -33 72 0 93 4 136 26 75 40 107 70
145 140 31 58 34 70 34 148 0 78 -3 90 -34 148 -57 104 -144 160 -260 167 -36
2 -79 1 -96 -4z"/>
<path d="M1484 3270 c-76 -15 -125 -31 -122 -39 2 -4 56 -59 120 -121 l118
-112 117 112 c65 62 119 116 121 120 4 10 -43 24 -128 40 -61 12 -167 11 -226
0z"/>
<path d="M1140 3117 c-73 -57 -170 -174 -170 -204 0 -22 156 -138 243 -181
318 -157 704 -105 972 131 45 41 48 46 38 69 -19 43 -112 146 -169 190 l-55
41 -200 -199 -199 -199 -198 198 c-108 108 -199 197 -202 197 -3 0 -30 -19
-60 -43z"/>
<path d="M495 4620 l-140 -140 143 0 142 0 0 140 c0 77 -1 140 -3 140 -1 0
-65 -63 -142 -140z"/>
<path d="M2985 4535 l-25 -24 0 -591 0 -591 25 -24 24 -25 255 0 255 0 3 -151
c4 -215 -3 -214 201 -11 l162 162 473 0 473 0 24 25 25 24 0 591 0 591 -25 24
-24 25 -911 0 -911 0 -24 -25z m1622 -276 c-1 -4 -211 -196 -466 -428 l-464
-422 -144 143 c-79 78 -143 147 -143 153 0 13 91 105 104 105 6 0 51 -40 101
-89 l90 -90 410 374 410 374 52 -57 c29 -31 51 -60 50 -63z"/>
<path d="M2985 2295 l-25 -24 0 -591 0 -591 25 -24 24 -25 473 0 473 0 162
-162 c204 -203 197 -204 201 11 l3 151 255 0 255 0 24 25 25 24 0 591 0 591
-25 24 -24 25 -911 0 -911 0 -24 -25z m767 -332 l168 -168 168 168 c92 92 172
167 177 167 13 0 105 -92 105 -105 0 -5 -75 -85 -167 -177 l-168 -168 170
-170 170 -170 -58 -57 -57 -58 -170 170 -170 170 -170 -170 -170 -170 -57 58
-58 57 170 170 170 170 -168 168 c-92 92 -167 172 -167 177 0 13 92 105 105
105 5 0 85 -75 177 -167z"/>
</g>
</svg>
