<?xml version="1.0" standalone="no"?>
<!DOCTYPE svg PUBLIC "-//W3C//DTD SVG 20010904//EN"
 "http://www.w3.org/TR/2001/REC-SVG-20010904/DTD/svg10.dtd">
<svg version="1.0" xmlns="http://www.w3.org/2000/svg"
 width="512.000000pt" height="512.000000pt" viewBox="0 0 512.000000 512.000000"
 preserveAspectRatio="xMidYMid meet">

<g transform="translate(0.000000,512.000000) scale(0.100000,-0.100000)"
fill="#000000" stroke="none">
<path d="M1283 3950 c-522 -43 -984 -382 -1178 -862 -274 -680 17 -1450 670
-1776 357 -178 780 -194 1149 -43 234 96 463 277 610 484 49 70 144 245 164
305 l11 32 505 0 506 0 2 -462 3 -463 463 -3 462 -2 0 465 0 465 235 0 235 0
0 470 0 470 -1206 0 -1205 0 -11 33 c-20 59 -115 234 -164 304 -27 37 -87 108
-134 157 -239 250 -548 397 -895 426 -66 5 -122 9 -125 8 -3 0 -46 -4 -97 -8z
m313 -974 c287 -136 353 -516 129 -741 -93 -92 -201 -136 -333 -136 -256 1
-456 203 -456 461 0 343 350 563 660 416z"/>
</g>
</svg>
