<?xml version="1.0" standalone="no"?>
<!DOCTYPE svg PUBLIC "-//W3C//DTD SVG 20010904//EN"
 "http://www.w3.org/TR/2001/REC-SVG-20010904/DTD/svg10.dtd">
<svg version="1.0" xmlns="http://www.w3.org/2000/svg"
 width="512.000000pt" height="512.000000pt" viewBox="0 0 512.000000 512.000000"
 preserveAspectRatio="xMidYMid meet">

<g transform="translate(0.000000,512.000000) scale(0.100000,-0.100000)"
fill="#000000" stroke="none">
<path d="M2035 4995 c-169 -31 -366 -116 -495 -214 -84 -63 -214 -199 -269
-280 -63 -93 -136 -252 -168 -366 l-27 -100 -4 -472 -3 -473 210 0 210 0 4
433 c4 472 6 489 67 623 75 165 209 300 376 375 97 44 185 62 304 62 63 0 132
-6 172 -16 224 -55 413 -212 509 -423 60 -132 62 -150 66 -621 l4 -433 210 0
209 0 0 434 c0 470 -5 528 -56 681 -35 105 -112 254 -173 335 -62 82 -198 214
-276 267 -134 90 -308 161 -463 188 -102 18 -310 18 -407 0z"/>
<path d="M649 2852 c-39 -20 -62 -41 -84 -77 l-30 -48 -3 -189 -4 -188 1712 0
1712 0 -4 188 -3 189 -30 48 c-22 36 -45 57 -84 77 l-53 28 -1538 0 -1538 0
-53 -28z"/>
<path d="M640 1490 l0 -640 1284 0 c706 0 1297 3 1313 6 l30 6 -24 69 c-134
387 80 821 465 944 148 47 132 29 132 150 l0 105 -1600 0 -1600 0 0 -640z
m800 413 c40 -23 50 -52 50 -143 0 -44 2 -80 4 -80 2 0 35 18 72 40 88 51 124
52 170 6 24 -24 34 -43 34 -65 0 -54 -21 -81 -98 -126 l-73 -43 61 -33 c98
-52 131 -109 99 -172 -34 -67 -102 -75 -189 -22 -32 19 -63 35 -69 35 -7 0
-11 -29 -11 -86 0 -81 -1 -87 -29 -115 -41 -41 -98 -41 -143 0 -32 28 -33 32
-36 119 l-4 90 -66 -39 c-81 -47 -126 -51 -170 -14 -38 32 -48 72 -28 118 11
27 31 45 87 77 l73 43 -39 21 c-134 74 -165 138 -102 211 39 45 84 44 170 -4
l75 -40 4 88 c2 72 7 93 23 111 38 42 89 51 135 23z m1089 -17 c23 -24 26 -35
29 -116 l4 -89 75 40 c61 34 81 40 110 36 45 -8 70 -31 84 -76 19 -64 -5 -95
-125 -166 l-39 -22 65 -37 c81 -45 98 -64 105 -115 5 -36 2 -44 -30 -76 -48
-48 -88 -48 -178 4 l-69 40 0 -80 c0 -85 -9 -113 -44 -141 -41 -34 -131 -16
-152 30 -4 9 -10 56 -14 104 l-5 86 -65 -39 c-91 -55 -163 -50 -196 12 -35 69
-9 119 92 175 l65 36 -74 43 c-76 45 -97 72 -97 126 0 22 10 41 34 65 46 46
82 45 170 -6 37 -22 70 -40 72 -40 2 0 4 36 4 80 0 43 5 90 11 103 27 60 118
73 168 23z"/>
<path d="M3850 1699 c-87 -14 -209 -80 -279 -150 -115 -114 -174 -287 -152
-443 20 -147 110 -294 228 -372 217 -144 492 -117 673 65 213 214 213 539 1
750 -127 127 -291 179 -471 150z m15 -291 l85 -81 84 81 c77 75 87 82 124 82
49 0 97 -36 107 -79 10 -44 -16 -89 -94 -165 l-70 -70 78 -81 c50 -52 81 -94
86 -113 15 -70 -57 -142 -127 -127 -19 5 -61 36 -113 86 l-81 78 -70 -70 c-38
-39 -83 -77 -101 -85 -70 -30 -143 20 -143 98 0 37 7 47 82 124 l81 84 -81 85
c-78 81 -82 87 -82 131 0 37 5 51 29 75 24 24 38 29 75 29 44 0 50 -4 131 -82z"/>
<path d="M532 453 c3 -171 5 -192 25 -229 27 -51 72 -90 121 -104 26 -8 505
-10 1584 -8 l1546 3 44 30 c66 47 92 103 93 200 l0 80 -68 7 c-138 13 -274 69
-390 158 l-66 50 -1446 0 -1447 0 4 -187z"/>
</g>
</svg>
